<svg width="336" height="122" viewBox="0 0 336 122" fill="none" xmlns="http://www.w3.org/2000/svg">
<path d="M67.4915 5.54545V23H64.304L56.7102 12.0142H56.5824V23H52.892V5.54545H56.1307L63.6648 16.5227H63.8182V5.54545H67.4915ZM70.4723 23V9.90909H74.103V23H70.4723ZM72.2962 8.22159C71.7564 8.22159 71.2933 8.04261 70.907 7.68466C70.5263 7.32102 70.3359 6.88636 70.3359 6.38068C70.3359 5.88068 70.5263 5.4517 70.907 5.09375C71.2933 4.73011 71.7564 4.54829 72.2962 4.54829C72.8359 4.54829 73.2962 4.73011 73.6768 5.09375C74.0632 5.4517 74.2564 5.88068 74.2564 6.38068C74.2564 6.88636 74.0632 7.32102 73.6768 7.68466C73.2962 8.04261 72.8359 8.22159 72.2962 8.22159ZM80.642 15.4318V23H77.0114V9.90909H80.4716V12.2188H80.625C80.9148 11.4574 81.4006 10.8551 82.0824 10.4119C82.7642 9.96307 83.5909 9.73864 84.5625 9.73864C85.4716 9.73864 86.2642 9.9375 86.9403 10.3352C87.6165 10.733 88.142 11.3011 88.517 12.0398C88.892 12.7727 89.0795 13.6477 89.0795 14.6648V23H85.4489V15.3125C85.4545 14.5114 85.25 13.8864 84.8352 13.4375C84.4205 12.983 83.8494 12.7557 83.1222 12.7557C82.6335 12.7557 82.2017 12.8608 81.8267 13.071C81.4574 13.2812 81.1676 13.5881 80.9574 13.9915C80.7528 14.3892 80.6477 14.8693 80.642 15.4318ZM97.8388 28.1818C96.6626 28.1818 95.6541 28.0199 94.8132 27.696C93.978 27.3778 93.3132 26.9432 92.8189 26.392C92.3246 25.8409 92.0036 25.2216 91.8558 24.5341L95.2138 24.0824C95.3161 24.3438 95.478 24.5881 95.6996 24.8153C95.9212 25.0426 96.2138 25.2244 96.5774 25.3608C96.9467 25.5028 97.3956 25.5739 97.924 25.5739C98.7138 25.5739 99.3643 25.3807 99.8757 24.9943C100.393 24.6136 100.651 23.9744 100.651 23.0767V20.6818H100.498C100.339 21.0455 100.1 21.3892 99.782 21.7131C99.4638 22.0369 99.0547 22.3011 98.5547 22.5057C98.0547 22.7102 97.4581 22.8125 96.7649 22.8125C95.782 22.8125 94.8871 22.5852 94.0803 22.1307C93.2791 21.6705 92.6399 20.9687 92.1626 20.0256C91.6911 19.0767 91.4553 17.8778 91.4553 16.429C91.4553 14.946 91.6967 13.7074 92.1797 12.7131C92.6626 11.7187 93.3047 10.9744 94.1058 10.4801C94.9126 9.9858 95.7962 9.73864 96.7564 9.73864C97.4893 9.73864 98.103 9.86364 98.5973 10.1136C99.0916 10.358 99.4893 10.6648 99.7905 11.0341C100.097 11.3977 100.333 11.7557 100.498 12.108H100.634V9.90909H104.239V23.1278C104.239 24.2415 103.967 25.1733 103.421 25.9233C102.876 26.6733 102.12 27.2358 101.154 27.6108C100.194 27.9915 99.0888 28.1818 97.8388 28.1818ZM97.9155 20.0852C98.5007 20.0852 98.995 19.9403 99.3984 19.6506C99.8075 19.3551 100.12 18.9347 100.336 18.3892C100.558 17.8381 100.668 17.179 100.668 16.4119C100.668 15.6449 100.56 14.9801 100.344 14.4176C100.129 13.8494 99.8161 13.4091 99.407 13.0966C98.9979 12.7841 98.5007 12.6278 97.9155 12.6278C97.3189 12.6278 96.8161 12.7898 96.407 13.1136C95.9979 13.4318 95.6882 13.875 95.478 14.4432C95.2678 15.0114 95.1626 15.6676 95.1626 16.4119C95.1626 17.1676 95.2678 17.821 95.478 18.3722C95.6939 18.9176 96.0036 19.3409 96.407 19.642C96.8161 19.9375 97.3189 20.0852 97.9155 20.0852ZM115.523 17.4261V9.90909H119.154V23H115.668V20.6222H115.532C115.237 21.3892 114.745 22.0057 114.058 22.4716C113.376 22.9375 112.543 23.1705 111.56 23.1705C110.685 23.1705 109.915 22.9716 109.251 22.5739C108.586 22.1761 108.066 21.6108 107.691 20.8778C107.322 20.1449 107.134 19.267 107.129 18.2443V9.90909H110.759V17.5966C110.765 18.3693 110.972 18.9801 111.381 19.429C111.79 19.8778 112.339 20.1023 113.026 20.1023C113.464 20.1023 113.873 20.0028 114.254 19.804C114.634 19.5994 114.941 19.2983 115.174 18.9006C115.413 18.5028 115.529 18.0114 115.523 17.4261ZM111.85 8.22159L113.657 4.34375H117.015L114.415 8.22159H111.85ZM125.689 15.4318V23H122.058V9.90909H125.518V12.2188H125.672C125.962 11.4574 126.447 10.8551 127.129 10.4119C127.811 9.96307 128.638 9.73864 129.609 9.73864C130.518 9.73864 131.311 9.9375 131.987 10.3352C132.663 10.733 133.189 11.3011 133.564 12.0398C133.939 12.7727 134.126 13.6477 134.126 14.6648V23H130.496V15.3125C130.501 14.5114 130.297 13.8864 129.882 13.4375C129.467 12.983 128.896 12.7557 128.169 12.7557C127.68 12.7557 127.249 12.8608 126.874 13.071C126.504 13.2812 126.214 13.5881 126.004 13.9915C125.8 14.3892 125.695 14.8693 125.689 15.4318ZM142.543 23V9.90909H146.003V12.2188H146.156C146.429 11.4517 146.884 10.8466 147.52 10.4034C148.156 9.96023 148.918 9.73864 149.804 9.73864C150.702 9.73864 151.466 9.96307 152.097 10.4119C152.727 10.8551 153.148 11.4574 153.358 12.2188H153.494C153.761 11.4688 154.244 10.8693 154.943 10.4205C155.648 9.96591 156.48 9.73864 157.44 9.73864C158.662 9.73864 159.653 10.1278 160.415 10.9062C161.182 11.679 161.565 12.7756 161.565 14.196V23H157.943V14.9119C157.943 14.1847 157.75 13.6392 157.364 13.2756C156.977 12.9119 156.494 12.7301 155.915 12.7301C155.256 12.7301 154.741 12.9403 154.372 13.3608C154.003 13.7756 153.818 14.3239 153.818 15.0057V23H150.298V14.8352C150.298 14.1932 150.114 13.6818 149.744 13.3011C149.381 12.9205 148.901 12.7301 148.304 12.7301C147.901 12.7301 147.537 12.8324 147.213 13.0369C146.895 13.2358 146.642 13.517 146.455 13.8807C146.267 14.2386 146.173 14.6591 146.173 15.142V23H142.543ZM170.399 23.2557C169.053 23.2557 167.893 22.983 166.922 22.4375C165.956 21.8864 165.212 21.108 164.689 20.1023C164.166 19.0909 163.905 17.8949 163.905 16.5142C163.905 15.1676 164.166 13.9858 164.689 12.9688C165.212 11.9517 165.947 11.1591 166.896 10.5909C167.851 10.0227 168.97 9.73864 170.254 9.73864C171.118 9.73864 171.922 9.87784 172.666 10.1562C173.416 10.429 174.07 10.8409 174.626 11.392C175.189 11.9432 175.626 12.6364 175.939 13.4716C176.251 14.3011 176.408 15.2727 176.408 16.3864V17.3835H165.354V15.1335H172.99C172.99 14.6108 172.876 14.1477 172.649 13.7443C172.422 13.3409 172.107 13.0256 171.703 12.7983C171.305 12.5653 170.842 12.4489 170.314 12.4489C169.763 12.4489 169.274 12.5767 168.848 12.8324C168.428 13.0824 168.098 13.4205 167.859 13.8466C167.621 14.267 167.499 14.7358 167.493 15.2528V17.392C167.493 18.0398 167.612 18.5994 167.851 19.071C168.095 19.5426 168.439 19.9062 168.882 20.1619C169.325 20.4176 169.851 20.5455 170.459 20.5455C170.862 20.5455 171.232 20.4886 171.567 20.375C171.902 20.2614 172.189 20.0909 172.428 19.8636C172.666 19.6364 172.848 19.358 172.973 19.0284L176.331 19.25C176.161 20.0568 175.811 20.7614 175.283 21.3636C174.76 21.9602 174.084 22.4261 173.254 22.7614C172.43 23.0909 171.479 23.2557 170.399 23.2557ZM182.408 15.4318V23H178.777V9.90909H182.237V12.2188H182.391C182.68 11.4574 183.166 10.8551 183.848 10.4119C184.53 9.96307 185.357 9.73864 186.328 9.73864C187.237 9.73864 188.03 9.9375 188.706 10.3352C189.382 10.733 189.908 11.3011 190.283 12.0398C190.658 12.7727 190.845 13.6477 190.845 14.6648V23H187.214V15.3125C187.22 14.5114 187.016 13.8864 186.601 13.4375C186.186 12.983 185.615 12.7557 184.888 12.7557C184.399 12.7557 183.967 12.8608 183.592 13.071C183.223 13.2812 182.933 13.5881 182.723 13.9915C182.518 14.3892 182.413 14.8693 182.408 15.4318ZM204.599 13.642L201.275 13.8466C201.218 13.5625 201.096 13.3068 200.908 13.0795C200.721 12.8466 200.474 12.6619 200.167 12.5256C199.866 12.3835 199.505 12.3125 199.085 12.3125C198.522 12.3125 198.048 12.4318 197.661 12.6705C197.275 12.9034 197.082 13.2159 197.082 13.608C197.082 13.9205 197.207 14.1847 197.457 14.4006C197.707 14.6165 198.136 14.7898 198.744 14.9205L201.113 15.3977C202.386 15.6591 203.335 16.0795 203.96 16.6591C204.585 17.2386 204.897 18 204.897 18.9432C204.897 19.8011 204.644 20.554 204.138 21.2017C203.638 21.8494 202.951 22.3551 202.076 22.7188C201.207 23.0767 200.204 23.2557 199.067 23.2557C197.335 23.2557 195.954 22.8949 194.925 22.1733C193.903 21.446 193.303 20.4574 193.127 19.2074L196.698 19.0199C196.806 19.5483 197.067 19.9517 197.482 20.2301C197.897 20.5028 198.428 20.6392 199.076 20.6392C199.712 20.6392 200.224 20.517 200.61 20.2727C201.002 20.0227 201.201 19.7017 201.207 19.3097C201.201 18.9801 201.062 18.7102 200.789 18.5C200.516 18.2841 200.096 18.1193 199.528 18.0057L197.261 17.554C195.982 17.2983 195.031 16.8551 194.406 16.2244C193.786 15.5937 193.477 14.7898 193.477 13.8125C193.477 12.9716 193.704 12.2472 194.158 11.6392C194.619 11.0312 195.263 10.5625 196.093 10.233C196.928 9.90341 197.906 9.73864 199.025 9.73864C200.678 9.73864 201.979 10.0881 202.928 10.7869C203.883 11.4858 204.44 12.4375 204.599 13.642ZM210.916 23.2472C210.081 23.2472 209.337 23.1023 208.683 22.8125C208.03 22.517 207.513 22.0824 207.132 21.5085C206.757 20.929 206.57 20.2074 206.57 19.3438C206.57 18.6165 206.703 18.0057 206.97 17.5114C207.237 17.017 207.601 16.6193 208.061 16.3182C208.521 16.017 209.044 15.7898 209.629 15.6364C210.22 15.483 210.839 15.375 211.487 15.3125C212.249 15.233 212.862 15.1591 213.328 15.0909C213.794 15.017 214.132 14.9091 214.342 14.767C214.553 14.625 214.658 14.4148 214.658 14.1364V14.0852C214.658 13.5455 214.487 13.1278 214.146 12.8324C213.811 12.5369 213.334 12.3892 212.714 12.3892C212.061 12.3892 211.541 12.5341 211.155 12.8239C210.768 13.108 210.513 13.4659 210.388 13.8977L207.03 13.625C207.2 12.8295 207.536 12.142 208.036 11.5625C208.536 10.9773 209.18 10.5284 209.97 10.2159C210.766 9.89773 211.686 9.73864 212.732 9.73864C213.459 9.73864 214.155 9.82386 214.82 9.99432C215.49 10.1648 216.084 10.429 216.601 10.7869C217.124 11.1449 217.536 11.6051 217.837 12.1676C218.138 12.7244 218.288 13.392 218.288 14.1705V23H214.845V21.1847H214.743C214.533 21.5938 214.251 21.9545 213.899 22.267C213.547 22.5739 213.124 22.8153 212.629 22.9915C212.135 23.1619 211.564 23.2472 210.916 23.2472ZM211.956 20.7415C212.49 20.7415 212.962 20.6364 213.371 20.4261C213.78 20.2102 214.101 19.9205 214.334 19.5568C214.567 19.1932 214.683 18.7812 214.683 18.321V16.9318C214.57 17.0057 214.413 17.0739 214.214 17.1364C214.021 17.1932 213.803 17.2472 213.558 17.2983C213.314 17.3437 213.07 17.3864 212.825 17.4261C212.581 17.4602 212.359 17.4915 212.161 17.5199C211.734 17.5824 211.362 17.6818 211.044 17.8182C210.726 17.9545 210.479 18.1392 210.303 18.3722C210.126 18.5994 210.038 18.8835 210.038 19.2244C210.038 19.7188 210.217 20.0966 210.575 20.358C210.939 20.6136 211.399 20.7415 211.956 20.7415ZM221.105 9.90909H224.736V23.6477C224.736 24.6591 224.537 25.4773 224.139 26.1023C223.741 26.7273 223.17 27.1847 222.426 27.4744C221.688 27.7642 220.804 27.9091 219.776 27.9091C219.651 27.9091 219.531 27.9063 219.418 27.9006C219.298 27.9006 219.173 27.8977 219.043 27.892V25.054C219.139 25.0597 219.224 25.0625 219.298 25.0625C219.366 25.0682 219.44 25.071 219.52 25.071C220.105 25.071 220.514 24.946 220.747 24.696C220.986 24.4517 221.105 24.0824 221.105 23.5881V9.90909ZM222.912 8.22159C222.378 8.22159 221.918 8.04261 221.531 7.68466C221.145 7.32102 220.952 6.88636 220.952 6.38068C220.952 5.88068 221.145 5.4517 221.531 5.09375C221.918 4.73011 222.378 4.54829 222.912 4.54829C223.457 4.54829 223.92 4.73011 224.301 5.09375C224.688 5.4517 224.881 5.88068 224.881 6.38068C224.881 6.88636 224.688 7.32102 224.301 7.68466C223.92 8.04261 223.457 8.22159 222.912 8.22159ZM233.61 23.2557C232.263 23.2557 231.104 22.983 230.133 22.4375C229.167 21.8864 228.423 21.108 227.9 20.1023C227.377 19.0909 227.116 17.8949 227.116 16.5142C227.116 15.1676 227.377 13.9858 227.9 12.9688C228.423 11.9517 229.158 11.1591 230.107 10.5909C231.062 10.0227 232.181 9.73864 233.465 9.73864C234.329 9.73864 235.133 9.87784 235.877 10.1562C236.627 10.429 237.281 10.8409 237.837 11.392C238.4 11.9432 238.837 12.6364 239.15 13.4716C239.462 14.3011 239.619 15.2727 239.619 16.3864V17.3835H228.565V15.1335H236.201C236.201 14.6108 236.087 14.1477 235.86 13.7443C235.633 13.3409 235.317 13.0256 234.914 12.7983C234.516 12.5653 234.053 12.4489 233.525 12.4489C232.974 12.4489 232.485 12.5767 232.059 12.8324C231.638 13.0824 231.309 13.4205 231.07 13.8466C230.832 14.267 230.71 14.7358 230.704 15.2528V17.392C230.704 18.0398 230.823 18.5994 231.062 19.071C231.306 19.5426 231.65 19.9062 232.093 20.1619C232.536 20.4176 233.062 20.5455 233.67 20.5455C234.073 20.5455 234.442 20.4886 234.778 20.375C235.113 20.2614 235.4 20.0909 235.638 19.8636C235.877 19.6364 236.059 19.358 236.184 19.0284L239.542 19.25C239.371 20.0568 239.022 20.7614 238.494 21.3636C237.971 21.9602 237.295 22.4261 236.465 22.7614C235.641 23.0909 234.69 23.2557 233.61 23.2557ZM254.582 9.90909V12.6364H246.503V9.90909H254.582ZM248.352 23V8.96307C248.352 8.0142 248.537 7.22727 248.906 6.60227C249.281 5.97727 249.793 5.50852 250.44 5.19602C251.088 4.88352 251.824 4.72727 252.648 4.72727C253.205 4.72727 253.713 4.76989 254.173 4.85511C254.639 4.94034 254.986 5.01705 255.213 5.08523L254.565 7.8125C254.423 7.76705 254.247 7.72443 254.037 7.68466C253.832 7.64489 253.622 7.625 253.406 7.625C252.872 7.625 252.5 7.75 252.29 8C252.08 8.24432 251.974 8.58807 251.974 9.03125V23H248.352ZM265.195 17.4261V9.90909H268.826V23H265.34V20.6222H265.204C264.908 21.3892 264.417 22.0057 263.729 22.4716C263.048 22.9375 262.215 23.1705 261.232 23.1705C260.357 23.1705 259.587 22.9716 258.923 22.5739C258.258 22.1761 257.738 21.6108 257.363 20.8778C256.994 20.1449 256.806 19.267 256.8 18.2443V9.90909H260.431V17.5966C260.437 18.3693 260.644 18.9801 261.053 19.429C261.462 19.8778 262.011 20.1023 262.698 20.1023C263.136 20.1023 263.545 20.0028 263.925 19.804C264.306 19.5994 264.613 19.2983 264.846 18.9006C265.085 18.5028 265.201 18.0114 265.195 17.4261ZM277.696 23.2557C276.349 23.2557 275.19 22.983 274.219 22.4375C273.253 21.8864 272.509 21.108 271.986 20.1023C271.463 19.0909 271.202 17.8949 271.202 16.5142C271.202 15.1676 271.463 13.9858 271.986 12.9688C272.509 11.9517 273.244 11.1591 274.193 10.5909C275.148 10.0227 276.267 9.73864 277.551 9.73864C278.415 9.73864 279.219 9.87784 279.963 10.1562C280.713 10.429 281.366 10.8409 281.923 11.392C282.486 11.9432 282.923 12.6364 283.236 13.4716C283.548 14.3011 283.705 15.2727 283.705 16.3864V17.3835H272.651V15.1335H280.287C280.287 14.6108 280.173 14.1477 279.946 13.7443C279.719 13.3409 279.403 13.0256 279 12.7983C278.602 12.5653 278.139 12.4489 277.611 12.4489C277.06 12.4489 276.571 12.5767 276.145 12.8324C275.724 13.0824 275.395 13.4205 275.156 13.8466C274.918 14.267 274.795 14.7358 274.79 15.2528V17.392C274.79 18.0398 274.909 18.5994 275.148 19.071C275.392 19.5426 275.736 19.9062 276.179 20.1619C276.622 20.4176 277.148 20.5455 277.756 20.5455C278.159 20.5455 278.528 20.4886 278.864 20.375C279.199 20.2614 279.486 20.0909 279.724 19.8636C279.963 19.6364 280.145 19.358 280.27 19.0284L283.628 19.25C283.457 20.0568 283.108 20.7614 282.58 21.3636C282.057 21.9602 281.381 22.4261 280.551 22.7614C279.727 23.0909 278.776 23.2557 277.696 23.2557ZM107.575 52.2557C106.228 52.2557 105.069 51.983 104.098 51.4375C103.132 50.8864 102.387 50.108 101.865 49.1023C101.342 48.0909 101.081 46.8949 101.081 45.5142C101.081 44.1676 101.342 42.9858 101.865 41.9688C102.387 40.9517 103.123 40.1591 104.072 39.5909C105.027 39.0227 106.146 38.7386 107.43 38.7386C108.294 38.7386 109.098 38.8778 109.842 39.1562C110.592 39.429 111.245 39.8409 111.802 40.392C112.365 40.9432 112.802 41.6364 113.115 42.4716C113.427 43.3011 113.583 44.2727 113.583 45.3864V46.3835H102.529V44.1335H110.166C110.166 43.6108 110.052 43.1477 109.825 42.7443C109.598 42.3409 109.282 42.0256 108.879 41.7983C108.481 41.5653 108.018 41.4489 107.49 41.4489C106.939 41.4489 106.45 41.5767 106.024 41.8324C105.603 42.0824 105.274 42.4205 105.035 42.8466C104.797 43.267 104.674 43.7358 104.669 44.2528V46.392C104.669 47.0398 104.788 47.5994 105.027 48.071C105.271 48.5426 105.615 48.9062 106.058 49.1619C106.501 49.4176 107.027 49.5455 107.635 49.5455C108.038 49.5455 108.407 49.4886 108.743 49.375C109.078 49.2614 109.365 49.0909 109.603 48.8636C109.842 48.6364 110.024 48.358 110.149 48.0284L113.507 48.25C113.336 49.0568 112.987 49.7614 112.458 50.3636C111.936 50.9602 111.26 51.4261 110.43 51.7614C109.606 52.0909 108.654 52.2557 107.575 52.2557ZM119.583 44.4318V52H115.953V38.9091H119.413V41.2188H119.566C119.856 40.4574 120.342 39.8551 121.024 39.4119C121.706 38.9631 122.532 38.7386 123.504 38.7386C124.413 38.7386 125.206 38.9375 125.882 39.3352C126.558 39.733 127.083 40.3011 127.458 41.0398C127.833 41.7727 128.021 42.6477 128.021 43.6648V52H124.39V44.3125C124.396 43.5114 124.191 42.8864 123.777 42.4375C123.362 41.983 122.791 41.7557 122.064 41.7557C121.575 41.7557 121.143 41.8608 120.768 42.071C120.399 42.2812 120.109 42.5881 119.899 42.9915C119.694 43.3892 119.589 43.8693 119.583 44.4318ZM136.797 52.2557C135.456 52.2557 134.303 51.9716 133.337 51.4034C132.377 50.8295 131.638 50.0341 131.121 49.017C130.61 48 130.354 46.8295 130.354 45.5057C130.354 44.1648 130.613 42.9886 131.13 41.9773C131.652 40.9602 132.394 40.1676 133.354 39.5994C134.314 39.0256 135.456 38.7386 136.78 38.7386C137.922 38.7386 138.922 38.946 139.78 39.3608C140.638 39.7756 141.317 40.358 141.817 41.108C142.317 41.858 142.593 42.7386 142.644 43.75H139.218C139.121 43.0966 138.865 42.571 138.451 42.1733C138.042 41.7699 137.505 41.5682 136.84 41.5682C136.277 41.5682 135.786 41.7216 135.365 42.0284C134.951 42.3295 134.627 42.7699 134.394 43.3494C134.161 43.929 134.044 44.6307 134.044 45.4545C134.044 46.2898 134.158 47 134.385 47.5852C134.618 48.1705 134.945 48.6165 135.365 48.9233C135.786 49.2301 136.277 49.3835 136.84 49.3835C137.255 49.3835 137.627 49.2983 137.956 49.1278C138.292 48.9574 138.567 48.7102 138.783 48.3864C139.005 48.0568 139.15 47.6619 139.218 47.2017H142.644C142.587 48.2017 142.314 49.0824 141.826 49.8438C141.343 50.5994 140.675 51.1903 139.823 51.6165C138.971 52.0426 137.962 52.2557 136.797 52.2557ZM150.883 52.2557C149.559 52.2557 148.414 51.9744 147.449 51.4119C146.488 50.8437 145.747 50.054 145.224 49.0426C144.701 48.0256 144.44 46.8466 144.44 45.5057C144.44 44.1534 144.701 42.9716 145.224 41.9602C145.747 40.9432 146.488 40.1534 147.449 39.5909C148.414 39.0227 149.559 38.7386 150.883 38.7386C152.207 38.7386 153.349 39.0227 154.309 39.5909C155.275 40.1534 156.02 40.9432 156.542 41.9602C157.065 42.9716 157.326 44.1534 157.326 45.5057C157.326 46.8466 157.065 48.0256 156.542 49.0426C156.02 50.054 155.275 50.8437 154.309 51.4119C153.349 51.9744 152.207 52.2557 150.883 52.2557ZM150.9 49.4432C151.502 49.4432 152.005 49.2727 152.409 48.9318C152.812 48.5852 153.116 48.1136 153.321 47.517C153.531 46.9205 153.636 46.2415 153.636 45.4801C153.636 44.7188 153.531 44.0398 153.321 43.4432C153.116 42.8466 152.812 42.375 152.409 42.0284C152.005 41.6818 151.502 41.5085 150.9 41.5085C150.292 41.5085 149.781 41.6818 149.366 42.0284C148.957 42.375 148.647 42.8466 148.437 43.4432C148.233 44.0398 148.13 44.7188 148.13 45.4801C148.13 46.2415 148.233 46.9205 148.437 47.517C148.647 48.1136 148.957 48.5852 149.366 48.9318C149.781 49.2727 150.292 49.4432 150.9 49.4432ZM163.318 44.4318V52H159.687V38.9091H163.147V41.2188H163.301C163.591 40.4574 164.076 39.8551 164.758 39.4119C165.44 38.9631 166.267 38.7386 167.238 38.7386C168.147 38.7386 168.94 38.9375 169.616 39.3352C170.292 39.733 170.818 40.3011 171.193 41.0398C171.568 41.7727 171.755 42.6477 171.755 43.6648V52H168.125V44.3125C168.13 43.5114 167.926 42.8864 167.511 42.4375C167.096 41.983 166.525 41.7557 165.798 41.7557C165.309 41.7557 164.877 41.8608 164.502 42.071C164.133 42.2812 163.843 42.5881 163.633 42.9915C163.429 43.3892 163.324 43.8693 163.318 44.4318ZM181.58 38.9091V41.6364H173.696V38.9091H181.58ZM175.486 35.7727H179.117V47.9773C179.117 48.3125 179.168 48.5739 179.27 48.7614C179.373 48.9432 179.515 49.071 179.696 49.1449C179.884 49.2187 180.1 49.2557 180.344 49.2557C180.515 49.2557 180.685 49.2415 180.855 49.2131C181.026 49.179 181.157 49.1534 181.248 49.1364L181.819 51.8381C181.637 51.8949 181.381 51.9602 181.051 52.0341C180.722 52.1136 180.321 52.1619 179.85 52.179C178.975 52.2131 178.208 52.0966 177.549 51.8295C176.895 51.5625 176.387 51.1477 176.023 50.5852C175.659 50.0227 175.48 49.3125 175.486 48.4545V35.7727ZM183.945 52V38.9091H187.465V41.1932H187.601C187.84 40.3807 188.24 39.767 188.803 39.3523C189.365 38.9318 190.013 38.7216 190.746 38.7216C190.928 38.7216 191.124 38.733 191.334 38.7557C191.544 38.7784 191.729 38.8097 191.888 38.8494V42.071C191.718 42.0199 191.482 41.9744 191.181 41.9347C190.88 41.8949 190.604 41.875 190.354 41.875C189.82 41.875 189.343 41.9915 188.922 42.2244C188.507 42.4517 188.178 42.7699 187.934 43.179C187.695 43.5881 187.576 44.0597 187.576 44.5938V52H183.945ZM197.123 52.2472C196.288 52.2472 195.544 52.1023 194.89 51.8125C194.237 51.517 193.72 51.0824 193.339 50.5085C192.964 49.929 192.777 49.2074 192.777 48.3438C192.777 47.6165 192.91 47.0057 193.177 46.5114C193.444 46.017 193.808 45.6193 194.268 45.3182C194.728 45.017 195.251 44.7898 195.836 44.6364C196.427 44.483 197.047 44.375 197.694 44.3125C198.456 44.233 199.069 44.1591 199.535 44.0909C200.001 44.017 200.339 43.9091 200.549 43.767C200.76 43.625 200.865 43.4148 200.865 43.1364V43.0852C200.865 42.5455 200.694 42.1278 200.353 41.8324C200.018 41.5369 199.541 41.3892 198.922 41.3892C198.268 41.3892 197.748 41.5341 197.362 41.8239C196.975 42.108 196.72 42.4659 196.595 42.8977L193.237 42.625C193.407 41.8295 193.743 41.142 194.243 40.5625C194.743 39.9773 195.387 39.5284 196.177 39.2159C196.973 38.8977 197.893 38.7386 198.939 38.7386C199.666 38.7386 200.362 38.8239 201.027 38.9943C201.697 39.1648 202.291 39.429 202.808 39.7869C203.331 40.1449 203.743 40.6051 204.044 41.1676C204.345 41.7244 204.495 42.392 204.495 43.1705V52H201.052V50.1847H200.95C200.74 50.5938 200.458 50.9545 200.106 51.267C199.754 51.5739 199.331 51.8153 198.836 51.9915C198.342 52.1619 197.771 52.2472 197.123 52.2472ZM198.163 49.7415C198.697 49.7415 199.169 49.6364 199.578 49.4261C199.987 49.2102 200.308 48.9205 200.541 48.5568C200.774 48.1932 200.89 47.7812 200.89 47.321V45.9318C200.777 46.0057 200.62 46.0739 200.422 46.1364C200.228 46.1932 200.01 46.2472 199.765 46.2983C199.521 46.3437 199.277 46.3864 199.032 46.4261C198.788 46.4602 198.566 46.4915 198.368 46.5199C197.941 46.5824 197.569 46.6818 197.251 46.8182C196.933 46.9545 196.686 47.1392 196.51 47.3722C196.333 47.5994 196.245 47.8835 196.245 48.2244C196.245 48.7188 196.424 49.0966 196.782 49.358C197.146 49.6136 197.606 49.7415 198.163 49.7415ZM212.136 52.2131C211.142 52.2131 210.241 51.9574 209.434 51.446C208.633 50.929 207.997 50.1705 207.525 49.1705C207.059 48.1648 206.826 46.9318 206.826 45.4716C206.826 43.9716 207.068 42.7244 207.551 41.7301C208.034 40.7301 208.676 39.983 209.477 39.4886C210.284 38.9886 211.167 38.7386 212.127 38.7386C212.86 38.7386 213.471 38.8636 213.96 39.1136C214.454 39.358 214.852 39.6648 215.153 40.0341C215.46 40.3977 215.693 40.7557 215.852 41.108H215.963V34.5455H219.585V52H216.005V49.9034H215.852C215.681 50.267 215.44 50.6278 215.127 50.9858C214.821 51.3381 214.42 51.6307 213.926 51.8636C213.437 52.0966 212.841 52.2131 212.136 52.2131ZM213.287 49.3239C213.872 49.3239 214.366 49.1648 214.77 48.8466C215.179 48.5227 215.491 48.071 215.707 47.4915C215.929 46.9119 216.039 46.233 216.039 45.4545C216.039 44.6761 215.931 44 215.716 43.4261C215.5 42.8523 215.187 42.4091 214.778 42.0966C214.369 41.7841 213.872 41.6278 213.287 41.6278C212.69 41.6278 212.187 41.7898 211.778 42.1136C211.369 42.4375 211.059 42.8864 210.849 43.4602C210.639 44.0341 210.534 44.6989 210.534 45.4545C210.534 46.2159 210.639 46.8892 210.849 47.4744C211.065 48.054 211.375 48.5085 211.778 48.8381C212.187 49.1619 212.69 49.3239 213.287 49.3239ZM228.485 52.2557C227.161 52.2557 226.016 51.9744 225.05 51.4119C224.09 50.8437 223.348 50.054 222.826 49.0426C222.303 48.0256 222.042 46.8466 222.042 45.5057C222.042 44.1534 222.303 42.9716 222.826 41.9602C223.348 40.9432 224.09 40.1534 225.05 39.5909C226.016 39.0227 227.161 38.7386 228.485 38.7386C229.809 38.7386 230.951 39.0227 231.911 39.5909C232.877 40.1534 233.621 40.9432 234.144 41.9602C234.667 42.9716 234.928 44.1534 234.928 45.5057C234.928 46.8466 234.667 48.0256 234.144 49.0426C233.621 50.054 232.877 50.8437 231.911 51.4119C230.951 51.9744 229.809 52.2557 228.485 52.2557ZM228.502 49.4432C229.104 49.4432 229.607 49.2727 230.01 48.9318C230.414 48.5852 230.718 48.1136 230.922 47.517C231.132 46.9205 231.238 46.2415 231.238 45.4801C231.238 44.7188 231.132 44.0398 230.922 43.4432C230.718 42.8466 230.414 42.375 230.01 42.0284C229.607 41.6818 229.104 41.5085 228.502 41.5085C227.894 41.5085 227.382 41.6818 226.968 42.0284C226.559 42.375 226.249 42.8466 226.039 43.4432C225.834 44.0398 225.732 44.7188 225.732 45.4801C225.732 46.2415 225.834 46.9205 226.039 47.517C226.249 48.1136 226.559 48.5852 226.968 48.9318C227.382 49.2727 227.894 49.4432 228.502 49.4432Z" fill="#343A40"/>
<path d="M23.3572 80.3636V92H21.9482V80.3636H23.3572ZM27.3416 86.75V92H26.0007V83.2727H27.2962V84.6364H27.4098C27.6143 84.1932 27.925 83.8371 28.3416 83.5682C28.7583 83.2955 29.2962 83.1591 29.9553 83.1591C30.5462 83.1591 31.0632 83.2803 31.5064 83.5227C31.9496 83.7614 32.2943 84.125 32.5405 84.6136C32.7867 85.0985 32.9098 85.7121 32.9098 86.4545V92H31.5689V86.5455C31.5689 85.8598 31.3909 85.3258 31.0348 84.9432C30.6787 84.5568 30.1901 84.3636 29.5689 84.3636C29.1409 84.3636 28.7583 84.4564 28.4212 84.642C28.0878 84.8277 27.8246 85.0985 27.6314 85.4545C27.4382 85.8106 27.3416 86.2424 27.3416 86.75ZM38.8828 95.4545C38.2351 95.4545 37.6783 95.3712 37.2124 95.2045C36.7464 95.0417 36.3582 94.8258 36.0476 94.5568C35.7408 94.2917 35.4964 94.0076 35.3146 93.7045L36.3828 92.9545C36.504 93.1136 36.6574 93.2955 36.843 93.5C37.0286 93.7083 37.2824 93.8883 37.6044 94.0398C37.9302 94.1951 38.3563 94.2727 38.8828 94.2727C39.5874 94.2727 40.1688 94.1023 40.6271 93.7614C41.0855 93.4205 41.3146 92.8864 41.3146 92.1591V90.3864H41.201C41.1025 90.5455 40.9624 90.7424 40.7805 90.9773C40.6025 91.2083 40.3449 91.4148 40.0078 91.5966C39.6745 91.7746 39.2237 91.8636 38.6555 91.8636C37.951 91.8636 37.3184 91.697 36.7578 91.3636C36.201 91.0303 35.7597 90.5455 35.4339 89.9091C35.112 89.2727 34.951 88.5 34.951 87.5909C34.951 86.697 35.1082 85.9186 35.4226 85.2557C35.737 84.589 36.1745 84.0739 36.7351 83.7102C37.2957 83.3428 37.9434 83.1591 38.6783 83.1591C39.2464 83.1591 39.6972 83.2538 40.0305 83.4432C40.3677 83.6288 40.6252 83.8409 40.8033 84.0795C40.9851 84.3144 41.1252 84.5076 41.2237 84.6591H41.3601V83.2727H42.6555V92.25C42.6555 93 42.4851 93.6098 42.1442 94.0795C41.8071 94.553 41.3525 94.8996 40.7805 95.1193C40.2124 95.3428 39.5798 95.4545 38.8828 95.4545ZM38.8374 90.6591C39.3752 90.6591 39.8298 90.536 40.201 90.2898C40.5722 90.0436 40.8544 89.6894 41.0476 89.2273C41.2408 88.7652 41.3374 88.2121 41.3374 87.5682C41.3374 86.9394 41.2427 86.3845 41.0533 85.9034C40.8639 85.4223 40.5836 85.0455 40.2124 84.7727C39.8411 84.5 39.3828 84.3636 38.8374 84.3636C38.2692 84.3636 37.7957 84.5076 37.4169 84.7955C37.0419 85.0833 36.7597 85.4697 36.5703 85.9545C36.3847 86.4394 36.2919 86.9773 36.2919 87.5682C36.2919 88.1742 36.3866 88.7102 36.576 89.1761C36.7692 89.6383 37.0533 90.0019 37.4283 90.267C37.8071 90.5284 38.2768 90.6591 38.8374 90.6591ZM45.1101 92V83.2727H46.4055V84.5909H46.4964C46.6555 84.1591 46.9434 83.8087 47.3601 83.5398C47.7768 83.2708 48.2464 83.1364 48.7692 83.1364C48.8677 83.1364 48.9908 83.1383 49.1385 83.142C49.2862 83.1458 49.398 83.1515 49.4737 83.1591V84.5227C49.4283 84.5114 49.3241 84.4943 49.1612 84.4716C49.0021 84.4451 48.8336 84.4318 48.6555 84.4318C48.2313 84.4318 47.8525 84.5208 47.5192 84.6989C47.1896 84.8731 46.9283 85.1155 46.7351 85.4261C46.5457 85.733 46.451 86.0833 46.451 86.4773V92H45.1101ZM54.4567 92.1818C53.6158 92.1818 52.8904 91.9962 52.2805 91.625C51.6745 91.25 51.2067 90.7273 50.8771 90.0568C50.5514 89.3826 50.3885 88.5985 50.3885 87.7045C50.3885 86.8106 50.5514 86.0227 50.8771 85.3409C51.2067 84.6553 51.665 84.1212 52.2521 83.7386C52.843 83.3523 53.5324 83.1591 54.3203 83.1591C54.7749 83.1591 55.2237 83.2348 55.6669 83.3864C56.1101 83.5379 56.5135 83.7841 56.8771 84.125C57.2408 84.4621 57.5305 84.9091 57.7464 85.4659C57.9624 86.0227 58.0703 86.7083 58.0703 87.5227V88.0909H51.343V86.9318H56.7067C56.7067 86.4394 56.6082 86 56.4112 85.6136C56.218 85.2273 55.9415 84.9223 55.5817 84.6989C55.2256 84.4754 54.8052 84.3636 54.3203 84.3636C53.7862 84.3636 53.3241 84.4962 52.9339 84.7614C52.5476 85.0227 52.2502 85.3636 52.0419 85.7841C51.8336 86.2045 51.7294 86.6553 51.7294 87.1364V87.9091C51.7294 88.5682 51.843 89.1269 52.0703 89.5852C52.3014 90.0398 52.6214 90.3864 53.0305 90.625C53.4396 90.8598 53.915 90.9773 54.4567 90.9773C54.8089 90.9773 55.1271 90.928 55.4112 90.8295C55.6991 90.7273 55.9472 90.5758 56.1555 90.375C56.3639 90.1705 56.5249 89.9167 56.6385 89.6136L57.9339 89.9773C57.7976 90.4167 57.5684 90.803 57.2464 91.1364C56.9245 91.4659 56.5268 91.7235 56.0533 91.9091C55.5798 92.0909 55.0476 92.1818 54.4567 92.1818ZM66.2919 85.2273L65.0874 85.5682C65.0116 85.3674 64.8999 85.1723 64.7521 84.983C64.6082 84.7898 64.4112 84.6307 64.1612 84.5057C63.9112 84.3807 63.5911 84.3182 63.201 84.3182C62.6669 84.3182 62.2218 84.4413 61.8658 84.6875C61.5135 84.9299 61.3374 85.2386 61.3374 85.6136C61.3374 85.947 61.4586 86.2102 61.701 86.4034C61.9434 86.5966 62.3222 86.7576 62.8374 86.8864L64.1328 87.2045C64.9131 87.3939 65.4946 87.6837 65.8771 88.0739C66.2597 88.4602 66.451 88.9583 66.451 89.5682C66.451 90.0682 66.3071 90.5152 66.0192 90.9091C65.7351 91.303 65.3374 91.6136 64.826 91.8409C64.3146 92.0682 63.7199 92.1818 63.0419 92.1818C62.1518 92.1818 61.415 91.9886 60.8317 91.6023C60.2483 91.2159 59.879 90.6515 59.7237 89.9091L60.9964 89.5909C61.1177 90.0606 61.3468 90.4129 61.6839 90.6477C62.0249 90.8826 62.4699 91 63.0192 91C63.6442 91 64.1404 90.8674 64.5078 90.6023C64.879 90.3333 65.0646 90.0114 65.0646 89.6364C65.0646 89.3333 64.9586 89.0795 64.7464 88.875C64.5343 88.6667 64.2086 88.5114 63.7692 88.4091L62.3146 88.0682C61.5154 87.8788 60.9283 87.5852 60.5533 87.1875C60.1821 86.786 59.9964 86.2841 59.9964 85.6818C59.9964 85.1894 60.1347 84.7538 60.4112 84.375C60.6915 83.9962 61.0722 83.6989 61.5533 83.483C62.0381 83.267 62.5874 83.1591 63.201 83.1591C64.0646 83.1591 64.7427 83.3485 65.2351 83.7273C65.7313 84.1061 66.0836 84.6061 66.2919 85.2273ZM71.0376 92.2045C70.4846 92.2045 69.9827 92.1004 69.532 91.892C69.0812 91.6799 68.7232 91.375 68.4581 90.9773C68.1929 90.5758 68.0604 90.0909 68.0604 89.5227C68.0604 89.0227 68.1589 88.6174 68.3558 88.3068C68.5528 87.9924 68.8161 87.7462 69.1456 87.5682C69.4751 87.3902 69.8388 87.2576 70.2365 87.1705C70.638 87.0795 71.0414 87.0076 71.4467 86.9545C71.977 86.8864 72.407 86.8352 72.7365 86.8011C73.0698 86.7633 73.3123 86.7008 73.4638 86.6136C73.6191 86.5265 73.6967 86.375 73.6967 86.1591V86.1136C73.6967 85.553 73.5433 85.1174 73.2365 84.8068C72.9335 84.4962 72.4732 84.3409 71.8558 84.3409C71.2157 84.3409 70.7138 84.4811 70.3501 84.7614C69.9865 85.0417 69.7308 85.3409 69.5831 85.6591L68.3104 85.2045C68.5376 84.6742 68.8407 84.2614 69.2195 83.9659C69.602 83.6667 70.0187 83.4583 70.4695 83.3409C70.924 83.2197 71.371 83.1591 71.8104 83.1591C72.0907 83.1591 72.4126 83.1932 72.7763 83.2614C73.1437 83.3258 73.4979 83.4602 73.8388 83.6648C74.1835 83.8693 74.4695 84.178 74.6967 84.5909C74.924 85.0038 75.0376 85.5568 75.0376 86.25V92H73.6967V90.8182H73.6286C73.5376 91.0076 73.3861 91.2102 73.174 91.4261C72.9619 91.642 72.6797 91.8258 72.3274 91.9773C71.9751 92.1288 71.5452 92.2045 71.0376 92.2045ZM71.2422 91C71.7725 91 72.2195 90.8958 72.5831 90.6875C72.9505 90.4792 73.227 90.2102 73.4126 89.8807C73.602 89.5511 73.6967 89.2045 73.6967 88.8409V87.6136C73.6399 87.6818 73.5149 87.7443 73.3217 87.8011C73.1323 87.8542 72.9126 87.9015 72.6626 87.9432C72.4164 87.9811 72.1759 88.0152 71.9411 88.0455C71.71 88.072 71.5225 88.0947 71.3786 88.1136C71.0301 88.1591 70.7043 88.233 70.4013 88.3352C70.102 88.4337 69.8596 88.5833 69.674 88.7841C69.4922 88.9811 69.4013 89.25 69.4013 89.5909C69.4013 90.0568 69.5736 90.4091 69.9183 90.6477C70.2668 90.8826 70.7081 91 71.2422 91ZM85.6442 92.1818C84.8033 92.1818 84.0779 91.9962 83.468 91.625C82.862 91.25 82.3942 90.7273 82.0646 90.0568C81.7389 89.3826 81.576 88.5985 81.576 87.7045C81.576 86.8106 81.7389 86.0227 82.0646 85.3409C82.3942 84.6553 82.8525 84.1212 83.4396 83.7386C84.0305 83.3523 84.7199 83.1591 85.5078 83.1591C85.9624 83.1591 86.4112 83.2348 86.8544 83.3864C87.2976 83.5379 87.701 83.7841 88.0646 84.125C88.4283 84.4621 88.718 84.9091 88.9339 85.4659C89.1499 86.0227 89.2578 86.7083 89.2578 87.5227V88.0909H82.5305V86.9318H87.8942C87.8942 86.4394 87.7957 86 87.5987 85.6136C87.4055 85.2273 87.129 84.9223 86.7692 84.6989C86.4131 84.4754 85.9927 84.3636 85.5078 84.3636C84.9737 84.3636 84.5116 84.4962 84.1214 84.7614C83.7351 85.0227 83.4377 85.3636 83.2294 85.7841C83.0211 86.2045 82.9169 86.6553 82.9169 87.1364V87.9091C82.9169 88.5682 83.0305 89.1269 83.2578 89.5852C83.4889 90.0398 83.8089 90.3864 84.218 90.625C84.6271 90.8598 85.1025 90.9773 85.6442 90.9773C85.9964 90.9773 86.3146 90.928 86.5987 90.8295C86.8866 90.7273 87.1347 90.5758 87.343 90.375C87.5514 90.1705 87.7124 89.9167 87.826 89.6136L89.1214 89.9773C88.9851 90.4167 88.7559 90.803 88.4339 91.1364C88.112 91.4659 87.7143 91.7235 87.2408 91.9091C86.7673 92.0909 86.2351 92.1818 85.6442 92.1818ZM92.6385 80.3636V92H91.2976V80.3636H92.6385ZM103.39 83.2727V84.4091H98.8672V83.2727H103.39ZM100.185 81.1818H101.526V89.5C101.526 89.8788 101.581 90.1629 101.691 90.3523C101.805 90.5379 101.949 90.6629 102.123 90.7273C102.301 90.7879 102.488 90.8182 102.685 90.8182C102.833 90.8182 102.954 90.8106 103.049 90.7955C103.144 90.7765 103.219 90.7614 103.276 90.75L103.549 91.9545C103.458 91.9886 103.331 92.0227 103.168 92.0568C103.005 92.0947 102.799 92.1136 102.549 92.1136C102.17 92.1136 101.799 92.0322 101.435 91.8693C101.076 91.7064 100.776 91.4583 100.538 91.125C100.303 90.7917 100.185 90.3712 100.185 89.8636V81.1818ZM108.972 92.1818C108.131 92.1818 107.406 91.9962 106.796 91.625C106.19 91.25 105.722 90.7273 105.393 90.0568C105.067 89.3826 104.904 88.5985 104.904 87.7045C104.904 86.8106 105.067 86.0227 105.393 85.3409C105.722 84.6553 106.181 84.1212 106.768 83.7386C107.359 83.3523 108.048 83.1591 108.836 83.1591C109.29 83.1591 109.739 83.2348 110.183 83.3864C110.626 83.5379 111.029 83.7841 111.393 84.125C111.756 84.4621 112.046 84.9091 112.262 85.4659C112.478 86.0227 112.586 86.7083 112.586 87.5227V88.0909H105.859V86.9318H111.222C111.222 86.4394 111.124 86 110.927 85.6136C110.734 85.2273 110.457 84.9223 110.097 84.6989C109.741 84.4754 109.321 84.3636 108.836 84.3636C108.302 84.3636 107.84 84.4962 107.45 84.7614C107.063 85.0227 106.766 85.3636 106.558 85.7841C106.349 86.2045 106.245 86.6553 106.245 87.1364V87.9091C106.245 88.5682 106.359 89.1269 106.586 89.5852C106.817 90.0398 107.137 90.3864 107.546 90.625C107.955 90.8598 108.431 90.9773 108.972 90.9773C109.325 90.9773 109.643 90.928 109.927 90.8295C110.215 90.7273 110.463 90.5758 110.671 90.375C110.879 90.1705 111.04 89.9167 111.154 89.6136L112.45 89.9773C112.313 90.4167 112.084 90.803 111.762 91.1364C111.44 91.4659 111.042 91.7235 110.569 91.9091C110.095 92.0909 109.563 92.1818 108.972 92.1818ZM115.391 83.2727L117.482 86.8409L119.573 83.2727H121.119L118.3 87.6364L121.119 92H119.573L117.482 88.6136L115.391 92H113.846L116.619 87.6364L113.846 83.2727H115.391ZM126.827 83.2727V84.4091H122.305V83.2727H126.827ZM123.623 81.1818H124.964V89.5C124.964 89.8788 125.019 90.1629 125.129 90.3523C125.242 90.5379 125.386 90.6629 125.56 90.7273C125.738 90.7879 125.926 90.8182 126.123 90.8182C126.271 90.8182 126.392 90.8106 126.487 90.7955C126.581 90.7765 126.657 90.7614 126.714 90.75L126.987 91.9545C126.896 91.9886 126.769 92.0227 126.606 92.0568C126.443 92.0947 126.237 92.1136 125.987 92.1136C125.608 92.1136 125.237 92.0322 124.873 91.8693C124.513 91.7064 124.214 91.4583 123.975 91.125C123.74 90.7917 123.623 90.3712 123.623 89.8636V81.1818ZM132.296 92.1818C131.508 92.1818 130.817 91.9943 130.222 91.6193C129.631 91.2443 129.169 90.7197 128.836 90.0455C128.506 89.3712 128.342 88.5833 128.342 87.6818C128.342 86.7727 128.506 85.9792 128.836 85.3011C129.169 84.6231 129.631 84.0966 130.222 83.7216C130.817 83.3466 131.508 83.1591 132.296 83.1591C133.084 83.1591 133.773 83.3466 134.364 83.7216C134.959 84.0966 135.421 84.6231 135.751 85.3011C136.084 85.9792 136.251 86.7727 136.251 87.6818C136.251 88.5833 136.084 89.3712 135.751 90.0455C135.421 90.7197 134.959 91.2443 134.364 91.6193C133.773 91.9943 133.084 92.1818 132.296 92.1818ZM132.296 90.9773C132.895 90.9773 133.387 90.8239 133.773 90.517C134.16 90.2102 134.446 89.8068 134.631 89.3068C134.817 88.8068 134.91 88.2652 134.91 87.6818C134.91 87.0985 134.817 86.5549 134.631 86.0511C134.446 85.5473 134.16 85.1402 133.773 84.8295C133.387 84.5189 132.895 84.3636 132.296 84.3636C131.698 84.3636 131.205 84.5189 130.819 84.8295C130.433 85.1402 130.147 85.5473 129.961 86.0511C129.775 86.5549 129.683 87.0985 129.683 87.6818C129.683 88.2652 129.775 88.8068 129.961 89.3068C130.147 89.8068 130.433 90.2102 130.819 90.517C131.205 90.8239 131.698 90.9773 132.296 90.9773ZM148.752 95.2727V90.6591H148.638C148.54 90.8182 148.4 91.0189 148.218 91.2614C148.036 91.5 147.777 91.714 147.44 91.9034C147.103 92.089 146.654 92.1818 146.093 92.1818C145.366 92.1818 144.724 91.9981 144.167 91.6307C143.61 91.2595 143.174 90.7367 142.86 90.0625C142.546 89.3845 142.388 88.5833 142.388 87.6591C142.388 86.7424 142.546 85.947 142.86 85.2727C143.174 84.5985 143.612 84.0777 144.173 83.7102C144.733 83.3428 145.381 83.1591 146.116 83.1591C146.684 83.1591 147.133 83.2538 147.462 83.4432C147.796 83.6288 148.049 83.8409 148.224 84.0795C148.402 84.3144 148.54 84.5076 148.638 84.6591H148.798V83.2727H150.093V95.2727H148.752ZM146.275 90.9773C146.813 90.9773 147.267 90.8371 147.638 90.5568C148.01 90.2727 148.292 89.8807 148.485 89.3807C148.678 88.8769 148.775 88.2955 148.775 87.6364C148.775 86.9848 148.68 86.4148 148.491 85.9261C148.301 85.4337 148.021 85.0511 147.65 84.7784C147.279 84.5019 146.82 84.3636 146.275 84.3636C145.707 84.3636 145.233 84.5095 144.854 84.8011C144.479 85.089 144.197 85.4811 144.008 85.9773C143.822 86.4697 143.729 87.0227 143.729 87.6364C143.729 88.2576 143.824 88.822 144.013 89.3295C144.207 89.8333 144.491 90.2348 144.866 90.5341C145.245 90.8295 145.714 90.9773 146.275 90.9773ZM158.048 88.4318V83.2727H159.388V92H158.048V90.5227H157.957C157.752 90.9659 157.434 91.3428 157.002 91.6534C156.57 91.9602 156.025 92.1136 155.366 92.1136C154.82 92.1136 154.335 91.9943 153.911 91.7557C153.487 91.5133 153.154 91.1496 152.911 90.6648C152.669 90.1761 152.548 89.5606 152.548 88.8182V83.2727H153.888V88.7273C153.888 89.3636 154.067 89.8712 154.423 90.25C154.782 90.6288 155.241 90.8182 155.798 90.8182C156.131 90.8182 156.47 90.733 156.815 90.5625C157.163 90.392 157.455 90.1307 157.69 89.7784C157.928 89.4261 158.048 88.9773 158.048 88.4318ZM165.504 92.1818C164.663 92.1818 163.937 91.9962 163.327 91.625C162.721 91.25 162.254 90.7273 161.924 90.0568C161.598 89.3826 161.435 88.5985 161.435 87.7045C161.435 86.8106 161.598 86.0227 161.924 85.3409C162.254 84.6553 162.712 84.1212 163.299 83.7386C163.89 83.3523 164.579 83.1591 165.367 83.1591C165.822 83.1591 166.271 83.2348 166.714 83.3864C167.157 83.5379 167.56 83.7841 167.924 84.125C168.288 84.4621 168.577 84.9091 168.793 85.4659C169.009 86.0227 169.117 86.7083 169.117 87.5227V88.0909H162.39V86.9318H167.754C167.754 86.4394 167.655 86 167.458 85.6136C167.265 85.2273 166.988 84.9223 166.629 84.6989C166.272 84.4754 165.852 84.3636 165.367 84.3636C164.833 84.3636 164.371 84.4962 163.981 84.7614C163.594 85.0227 163.297 85.3636 163.089 85.7841C162.88 86.2045 162.776 86.6553 162.776 87.1364V87.9091C162.776 88.5682 162.89 89.1269 163.117 89.5852C163.348 90.0398 163.668 90.3864 164.077 90.625C164.487 90.8598 164.962 90.9773 165.504 90.9773C165.856 90.9773 166.174 90.928 166.458 90.8295C166.746 90.7273 166.994 90.5758 167.202 90.375C167.411 90.1705 167.572 89.9167 167.685 89.6136L168.981 89.9773C168.844 90.4167 168.615 90.803 168.293 91.1364C167.971 91.4659 167.574 91.7235 167.1 91.9091C166.627 92.0909 166.094 92.1818 165.504 92.1818ZM178.952 92.1818C178.225 92.1818 177.583 91.9981 177.026 91.6307C176.469 91.2595 176.034 90.7367 175.719 90.0625C175.405 89.3845 175.248 88.5833 175.248 87.6591C175.248 86.7424 175.405 85.947 175.719 85.2727C176.034 84.5985 176.471 84.0777 177.032 83.7102C177.593 83.3428 178.24 83.1591 178.975 83.1591C179.543 83.1591 179.992 83.2538 180.322 83.4432C180.655 83.6288 180.909 83.8409 181.083 84.0795C181.261 84.3144 181.399 84.5076 181.498 84.6591H181.612V80.3636H182.952V92H181.657V90.6591H181.498C181.399 90.8182 181.259 91.0189 181.077 91.2614C180.896 91.5 180.636 91.714 180.299 91.9034C179.962 92.089 179.513 92.1818 178.952 92.1818ZM179.134 90.9773C179.672 90.9773 180.127 90.8371 180.498 90.5568C180.869 90.2727 181.151 89.8807 181.344 89.3807C181.538 88.8769 181.634 88.2955 181.634 87.6364C181.634 86.9848 181.54 86.4148 181.35 85.9261C181.161 85.4337 180.88 85.0511 180.509 84.7784C180.138 84.5019 179.68 84.3636 179.134 84.3636C178.566 84.3636 178.093 84.5095 177.714 84.8011C177.339 85.089 177.057 85.4811 176.867 85.9773C176.682 86.4697 176.589 87.0227 176.589 87.6364C176.589 88.2576 176.683 88.822 176.873 89.3295C177.066 89.8333 177.35 90.2348 177.725 90.5341C178.104 90.8295 178.574 90.9773 179.134 90.9773ZM189.254 92.1818C188.413 92.1818 187.687 91.9962 187.077 91.625C186.471 91.25 186.004 90.7273 185.674 90.0568C185.348 89.3826 185.185 88.5985 185.185 87.7045C185.185 86.8106 185.348 86.0227 185.674 85.3409C186.004 84.6553 186.462 84.1212 187.049 83.7386C187.64 83.3523 188.329 83.1591 189.117 83.1591C189.572 83.1591 190.021 83.2348 190.464 83.3864C190.907 83.5379 191.31 83.7841 191.674 84.125C192.038 84.4621 192.327 84.9091 192.543 85.4659C192.759 86.0227 192.867 86.7083 192.867 87.5227V88.0909H186.14V86.9318H191.504C191.504 86.4394 191.405 86 191.208 85.6136C191.015 85.2273 190.738 84.9223 190.379 84.6989C190.022 84.4754 189.602 84.3636 189.117 84.3636C188.583 84.3636 188.121 84.4962 187.731 84.7614C187.344 85.0227 187.047 85.3636 186.839 85.7841C186.63 86.2045 186.526 86.6553 186.526 87.1364V87.9091C186.526 88.5682 186.64 89.1269 186.867 89.5852C187.098 90.0398 187.418 90.3864 187.827 90.625C188.237 90.8598 188.712 90.9773 189.254 90.9773C189.606 90.9773 189.924 90.928 190.208 90.8295C190.496 90.7273 190.744 90.5758 190.952 90.375C191.161 90.1705 191.322 89.9167 191.435 89.6136L192.731 89.9773C192.594 90.4167 192.365 90.803 192.043 91.1364C191.721 91.4659 191.324 91.7235 190.85 91.9091C190.377 92.0909 189.844 92.1818 189.254 92.1818ZM201.089 85.2273L199.884 85.5682C199.808 85.3674 199.697 85.1723 199.549 84.983C199.405 84.7898 199.208 84.6307 198.958 84.5057C198.708 84.3807 198.388 84.3182 197.998 84.3182C197.464 84.3182 197.019 84.4413 196.663 84.6875C196.31 84.9299 196.134 85.2386 196.134 85.6136C196.134 85.947 196.255 86.2102 196.498 86.4034C196.74 86.5966 197.119 86.7576 197.634 86.8864L198.93 87.2045C199.71 87.3939 200.291 87.6837 200.674 88.0739C201.057 88.4602 201.248 88.9583 201.248 89.5682C201.248 90.0682 201.104 90.5152 200.816 90.9091C200.532 91.303 200.134 91.6136 199.623 91.8409C199.112 92.0682 198.517 92.1818 197.839 92.1818C196.949 92.1818 196.212 91.9886 195.629 91.6023C195.045 91.2159 194.676 90.6515 194.521 89.9091L195.793 89.5909C195.915 90.0606 196.144 90.4129 196.481 90.6477C196.822 90.8826 197.267 91 197.816 91C198.441 91 198.937 90.8674 199.305 90.6023C199.676 90.3333 199.862 90.0114 199.862 89.6364C199.862 89.3333 199.755 89.0795 199.543 88.875C199.331 88.6667 199.005 88.5114 198.566 88.4091L197.112 88.0682C196.312 87.8788 195.725 87.5852 195.35 87.1875C194.979 86.786 194.793 86.2841 194.793 85.6818C194.793 85.1894 194.932 84.7538 195.208 84.375C195.488 83.9962 195.869 83.6989 196.35 83.483C196.835 83.267 197.384 83.1591 197.998 83.1591C198.862 83.1591 199.54 83.3485 200.032 83.7273C200.528 84.1061 200.88 84.6061 201.089 85.2273ZM206.925 92.1818C206.085 92.1818 205.359 91.9962 204.749 91.625C204.143 91.25 203.675 90.7273 203.346 90.0568C203.02 89.3826 202.857 88.5985 202.857 87.7045C202.857 86.8106 203.02 86.0227 203.346 85.3409C203.675 84.6553 204.134 84.1212 204.721 83.7386C205.312 83.3523 206.001 83.1591 206.789 83.1591C207.244 83.1591 207.692 83.2348 208.136 83.3864C208.579 83.5379 208.982 83.7841 209.346 84.125C209.71 84.4621 209.999 84.9091 210.215 85.4659C210.431 86.0227 210.539 86.7083 210.539 87.5227V88.0909H203.812V86.9318H209.175C209.175 86.4394 209.077 86 208.88 85.6136C208.687 85.2273 208.41 84.9223 208.05 84.6989C207.694 84.4754 207.274 84.3636 206.789 84.3636C206.255 84.3636 205.793 84.4962 205.403 84.7614C205.016 85.0227 204.719 85.3636 204.511 85.7841C204.302 86.2045 204.198 86.6553 204.198 87.1364V87.9091C204.198 88.5682 204.312 89.1269 204.539 89.5852C204.77 90.0398 205.09 90.3864 205.499 90.625C205.908 90.8598 206.384 90.9773 206.925 90.9773C207.278 90.9773 207.596 90.928 207.88 90.8295C208.168 90.7273 208.416 90.5758 208.624 90.375C208.833 90.1705 208.994 89.9167 209.107 89.6136L210.403 89.9773C210.266 90.4167 210.037 90.803 209.715 91.1364C209.393 91.4659 208.996 91.7235 208.522 91.9091C208.049 92.0909 207.516 92.1818 206.925 92.1818ZM216.238 92.1818C215.397 92.1818 214.672 91.9962 214.062 91.625C213.456 91.25 212.988 90.7273 212.658 90.0568C212.333 89.3826 212.17 88.5985 212.17 87.7045C212.17 86.8106 212.333 86.0227 212.658 85.3409C212.988 84.6553 213.446 84.1212 214.033 83.7386C214.624 83.3523 215.314 83.1591 216.102 83.1591C216.556 83.1591 217.005 83.2348 217.448 83.3864C217.891 83.5379 218.295 83.7841 218.658 84.125C219.022 84.4621 219.312 84.9091 219.528 85.4659C219.744 86.0227 219.852 86.7083 219.852 87.5227V88.0909H213.124V86.9318H218.488C218.488 86.4394 218.389 86 218.192 85.6136C217.999 85.2273 217.723 84.9223 217.363 84.6989C217.007 84.4754 216.586 84.3636 216.102 84.3636C215.567 84.3636 215.105 84.4962 214.715 84.7614C214.329 85.0227 214.031 85.3636 213.823 85.7841C213.615 86.2045 213.511 86.6553 213.511 87.1364V87.9091C213.511 88.5682 213.624 89.1269 213.852 89.5852C214.083 90.0398 214.403 90.3864 214.812 90.625C215.221 90.8598 215.696 90.9773 216.238 90.9773C216.59 90.9773 216.908 90.928 217.192 90.8295C217.48 90.7273 217.728 90.5758 217.937 90.375C218.145 90.1705 218.306 89.9167 218.42 89.6136L219.715 89.9773C219.579 90.4167 219.35 90.803 219.028 91.1364C218.706 91.4659 218.308 91.7235 217.835 91.9091C217.361 92.0909 216.829 92.1818 216.238 92.1818ZM228.073 85.2273L226.869 85.5682C226.793 85.3674 226.681 85.1723 226.533 84.983C226.389 84.7898 226.192 84.6307 225.942 84.5057C225.692 84.3807 225.372 84.3182 224.982 84.3182C224.448 84.3182 224.003 84.4413 223.647 84.6875C223.295 84.9299 223.119 85.2386 223.119 85.6136C223.119 85.947 223.24 86.2102 223.482 86.4034C223.725 86.5966 224.103 86.7576 224.619 86.8864L225.914 87.2045C226.694 87.3939 227.276 87.6837 227.658 88.0739C228.041 88.4602 228.232 88.9583 228.232 89.5682C228.232 90.0682 228.088 90.5152 227.8 90.9091C227.516 91.303 227.119 91.6136 226.607 91.8409C226.096 92.0682 225.501 92.1818 224.823 92.1818C223.933 92.1818 223.196 91.9886 222.613 91.6023C222.03 91.2159 221.66 90.6515 221.505 89.9091L222.778 89.5909C222.899 90.0606 223.128 90.4129 223.465 90.6477C223.806 90.8826 224.251 91 224.8 91C225.425 91 225.922 90.8674 226.289 90.6023C226.66 90.3333 226.846 90.0114 226.846 89.6364C226.846 89.3333 226.74 89.0795 226.528 88.875C226.316 88.6667 225.99 88.5114 225.55 88.4091L224.096 88.0682C223.297 87.8788 222.71 87.5852 222.335 87.1875C221.963 86.786 221.778 86.2841 221.778 85.6818C221.778 85.1894 221.916 84.7538 222.192 84.375C222.473 83.9962 222.853 83.6989 223.335 83.483C223.819 83.267 224.369 83.1591 224.982 83.1591C225.846 83.1591 226.524 83.3485 227.016 83.7273C227.513 84.1061 227.865 84.6061 228.073 85.2273ZM238.41 92.1818C237.569 92.1818 236.844 91.9962 236.234 91.625C235.628 91.25 235.16 90.7273 234.83 90.0568C234.504 89.3826 234.342 88.5985 234.342 87.7045C234.342 86.8106 234.504 86.0227 234.83 85.3409C235.16 84.6553 235.618 84.1212 236.205 83.7386C236.796 83.3523 237.486 83.1591 238.273 83.1591C238.728 83.1591 239.177 83.2348 239.62 83.3864C240.063 83.5379 240.467 83.7841 240.83 84.125C241.194 84.4621 241.484 84.9091 241.7 85.4659C241.915 86.0227 242.023 86.7083 242.023 87.5227V88.0909H235.296V86.9318H240.66C240.66 86.4394 240.561 86 240.364 85.6136C240.171 85.2273 239.895 84.9223 239.535 84.6989C239.179 84.4754 238.758 84.3636 238.273 84.3636C237.739 84.3636 237.277 84.4962 236.887 84.7614C236.501 85.0227 236.203 85.3636 235.995 85.7841C235.787 86.2045 235.683 86.6553 235.683 87.1364V87.9091C235.683 88.5682 235.796 89.1269 236.023 89.5852C236.254 90.0398 236.575 90.3864 236.984 90.625C237.393 90.8598 237.868 90.9773 238.41 90.9773C238.762 90.9773 239.08 90.928 239.364 90.8295C239.652 90.7273 239.9 90.5758 240.109 90.375C240.317 90.1705 240.478 89.9167 240.592 89.6136L241.887 89.9773C241.751 90.4167 241.522 90.803 241.2 91.1364C240.878 91.4659 240.48 91.7235 240.006 91.9091C239.533 92.0909 239.001 92.1818 238.41 92.1818ZM245.404 86.75V92H244.063V83.2727H245.359V84.6364H245.472C245.677 84.1932 245.987 83.8371 246.404 83.5682C246.821 83.2955 247.359 83.1591 248.018 83.1591C248.609 83.1591 249.126 83.2803 249.569 83.5227C250.012 83.7614 250.357 84.125 250.603 84.6136C250.849 85.0985 250.972 85.7121 250.972 86.4545V92H249.631V86.5455C249.631 85.8598 249.453 85.3258 249.097 84.9432C248.741 84.5568 248.253 84.3636 247.631 84.3636C247.203 84.3636 246.821 84.4564 246.484 84.642C246.15 84.8277 245.887 85.0985 245.694 85.4545C245.501 85.8106 245.404 86.2424 245.404 86.75ZM256.968 92.1818C256.15 92.1818 255.445 91.9886 254.854 91.6023C254.263 91.2159 253.809 90.6837 253.491 90.0057C253.173 89.3277 253.013 88.553 253.013 87.6818C253.013 86.7955 253.176 86.0133 253.502 85.3352C253.832 84.6534 254.29 84.1212 254.877 83.7386C255.468 83.3523 256.157 83.1591 256.945 83.1591C257.559 83.1591 258.112 83.2727 258.604 83.5C259.097 83.7273 259.5 84.0455 259.815 84.4545C260.129 84.8636 260.324 85.3409 260.4 85.8864H259.059C258.957 85.4886 258.729 85.1364 258.377 84.8295C258.029 84.5189 257.559 84.3636 256.968 84.3636C256.445 84.3636 255.987 84.5 255.593 84.7727C255.203 85.0417 254.898 85.4223 254.678 85.9148C254.462 86.4034 254.354 86.9773 254.354 87.6364C254.354 88.3106 254.46 88.8977 254.673 89.3977C254.888 89.8977 255.192 90.286 255.582 90.5625C255.976 90.839 256.438 90.9773 256.968 90.9773C257.317 90.9773 257.633 90.9167 257.917 90.7955C258.201 90.6742 258.442 90.5 258.638 90.2727C258.835 90.0455 258.976 89.7727 259.059 89.4545H260.4C260.324 89.9697 260.137 90.4337 259.837 90.8466C259.542 91.2557 259.15 91.5814 258.661 91.8239C258.176 92.0625 257.612 92.1818 256.968 92.1818ZM262.36 92V83.2727H263.656V84.5909H263.746C263.906 84.1591 264.193 83.8087 264.61 83.5398C265.027 83.2708 265.496 83.1364 266.019 83.1364C266.118 83.1364 266.241 83.1383 266.388 83.142C266.536 83.1458 266.648 83.1515 266.724 83.1591V84.5227C266.678 84.5114 266.574 84.4943 266.411 84.4716C266.252 84.4451 266.084 84.4318 265.906 84.4318C265.481 84.4318 265.103 84.5208 264.769 84.6989C264.44 84.8731 264.178 85.1155 263.985 85.4261C263.796 85.733 263.701 86.0833 263.701 86.4773V92H262.36ZM268.313 92V83.2727H269.654V92H268.313ZM268.995 81.8182C268.734 81.8182 268.508 81.7292 268.319 81.5511C268.133 81.3731 268.04 81.1591 268.04 80.9091C268.04 80.6591 268.133 80.4451 268.319 80.267C268.508 80.089 268.734 80 268.995 80C269.256 80 269.48 80.089 269.665 80.267C269.855 80.4451 269.95 80.6591 269.95 80.9091C269.95 81.1591 269.855 81.3731 269.665 81.5511C269.48 81.7292 269.256 81.8182 268.995 81.8182ZM272.11 95.2727V83.2727H273.406V84.6591H273.565C273.663 84.5076 273.799 84.3144 273.974 84.0795C274.152 83.8409 274.406 83.6288 274.735 83.4432C275.068 83.2538 275.519 83.1591 276.087 83.1591C276.822 83.1591 277.47 83.3428 278.031 83.7102C278.591 84.0777 279.029 84.5985 279.343 85.2727C279.657 85.947 279.815 86.7424 279.815 87.6591C279.815 88.5833 279.657 89.3845 279.343 90.0625C279.029 90.7367 278.593 91.2595 278.036 91.6307C277.479 91.9981 276.837 92.1818 276.11 92.1818C275.549 92.1818 275.101 92.089 274.763 91.9034C274.426 91.714 274.167 91.5 273.985 91.2614C273.803 91.0189 273.663 90.8182 273.565 90.6591H273.451V95.2727H272.11ZM273.428 87.6364C273.428 88.2955 273.525 88.8769 273.718 89.3807C273.911 89.8807 274.193 90.2727 274.565 90.5568C274.936 90.8371 275.39 90.9773 275.928 90.9773C276.489 90.9773 276.957 90.8295 277.332 90.5341C277.71 90.2348 277.995 89.8333 278.184 89.3295C278.377 88.822 278.474 88.2576 278.474 87.6364C278.474 87.0227 278.379 86.4697 278.19 85.9773C278.004 85.4811 277.722 85.089 277.343 84.8011C276.968 84.5095 276.496 84.3636 275.928 84.3636C275.383 84.3636 274.924 84.5019 274.553 84.7784C274.182 85.0511 273.902 85.4337 273.712 85.9261C273.523 86.4148 273.428 86.9848 273.428 87.6364ZM285.656 83.2727V84.4091H281.133V83.2727H285.656ZM282.451 81.1818H283.792V89.5C283.792 89.8788 283.847 90.1629 283.957 90.3523C284.07 90.5379 284.214 90.6629 284.388 90.7273C284.567 90.7879 284.754 90.8182 284.951 90.8182C285.099 90.8182 285.22 90.8106 285.315 90.7955C285.409 90.7765 285.485 90.7614 285.542 90.75L285.815 91.9545C285.724 91.9886 285.597 92.0227 285.434 92.0568C285.271 92.0947 285.065 92.1136 284.815 92.1136C284.436 92.1136 284.065 92.0322 283.701 91.8693C283.341 91.7064 283.042 91.4583 282.803 91.125C282.568 90.7917 282.451 90.3712 282.451 89.8636V81.1818ZM290.241 92.2045C289.688 92.2045 289.186 92.1004 288.735 91.892C288.284 91.6799 287.926 91.375 287.661 90.9773C287.396 90.5758 287.263 90.0909 287.263 89.5227C287.263 89.0227 287.362 88.6174 287.559 88.3068C287.756 87.9924 288.019 87.7462 288.349 87.5682C288.678 87.3902 289.042 87.2576 289.44 87.1705C289.841 87.0795 290.245 87.0076 290.65 86.9545C291.18 86.8864 291.61 86.8352 291.94 86.8011C292.273 86.7633 292.515 86.7008 292.667 86.6136C292.822 86.5265 292.9 86.375 292.9 86.1591V86.1136C292.9 85.553 292.746 85.1174 292.44 84.8068C292.137 84.4962 291.676 84.3409 291.059 84.3409C290.419 84.3409 289.917 84.4811 289.553 84.7614C289.19 85.0417 288.934 85.3409 288.786 85.6591L287.513 85.2045C287.741 84.6742 288.044 84.2614 288.423 83.9659C288.805 83.6667 289.222 83.4583 289.673 83.3409C290.127 83.2197 290.574 83.1591 291.013 83.1591C291.294 83.1591 291.616 83.1932 291.979 83.2614C292.347 83.3258 292.701 83.4602 293.042 83.6648C293.387 83.8693 293.673 84.178 293.9 84.5909C294.127 85.0038 294.241 85.5568 294.241 86.25V92H292.9V90.8182H292.832C292.741 91.0076 292.589 91.2102 292.377 91.4261C292.165 91.642 291.883 91.8258 291.531 91.9773C291.178 92.1288 290.748 92.2045 290.241 92.2045ZM290.445 91C290.976 91 291.423 90.8958 291.786 90.6875C292.154 90.4792 292.43 90.2102 292.616 89.8807C292.805 89.5511 292.9 89.2045 292.9 88.8409V87.6136C292.843 87.6818 292.718 87.7443 292.525 87.8011C292.335 87.8542 292.116 87.9015 291.866 87.9432C291.62 87.9811 291.379 88.0152 291.144 88.0455C290.913 88.072 290.726 88.0947 290.582 88.1136C290.233 88.1591 289.907 88.233 289.604 88.3352C289.305 88.4337 289.063 88.5833 288.877 88.7841C288.695 88.9811 288.604 89.25 288.604 89.5909C288.604 90.0568 288.777 90.4091 289.121 90.6477C289.47 90.8826 289.911 91 290.445 91ZM296.688 92V83.2727H297.984V84.5909H298.075C298.234 84.1591 298.522 83.8087 298.938 83.5398C299.355 83.2708 299.825 83.1364 300.347 83.1364C300.446 83.1364 300.569 83.1383 300.717 83.142C300.864 83.1458 300.976 83.1515 301.052 83.1591V84.5227C301.006 84.5114 300.902 84.4943 300.739 84.4716C300.58 84.4451 300.412 84.4318 300.234 84.4318C299.809 84.4318 299.431 84.5208 299.097 84.6989C298.768 84.8731 298.506 85.1155 298.313 85.4261C298.124 85.733 298.029 86.0833 298.029 86.4773V92H296.688ZM310.687 92.1818C309.899 92.1818 309.208 91.9943 308.613 91.6193C308.022 91.2443 307.56 90.7197 307.227 90.0455C306.897 89.3712 306.732 88.5833 306.732 87.6818C306.732 86.7727 306.897 85.9792 307.227 85.3011C307.56 84.6231 308.022 84.0966 308.613 83.7216C309.208 83.3466 309.899 83.1591 310.687 83.1591C311.475 83.1591 312.164 83.3466 312.755 83.7216C313.35 84.0966 313.812 84.6231 314.141 85.3011C314.475 85.9792 314.641 86.7727 314.641 87.6818C314.641 88.5833 314.475 89.3712 314.141 90.0455C313.812 90.7197 313.35 91.2443 312.755 91.6193C312.164 91.9943 311.475 92.1818 310.687 92.1818ZM310.687 90.9773C311.285 90.9773 311.778 90.8239 312.164 90.517C312.55 90.2102 312.836 89.8068 313.022 89.3068C313.208 88.8068 313.3 88.2652 313.3 87.6818C313.3 87.0985 313.208 86.5549 313.022 86.0511C312.836 85.5473 312.55 85.1402 312.164 84.8295C311.778 84.5189 311.285 84.3636 310.687 84.3636C310.088 84.3636 309.596 84.5189 309.21 84.8295C308.823 85.1402 308.537 85.5473 308.352 86.0511C308.166 86.5549 308.073 87.0985 308.073 87.6818C308.073 88.2652 308.166 88.8068 308.352 89.3068C308.537 89.8068 308.823 90.2102 309.21 90.517C309.596 90.8239 310.088 90.9773 310.687 90.9773ZM123.07 116.182C122.342 116.182 121.7 115.998 121.143 115.631C120.587 115.259 120.151 114.737 119.837 114.062C119.522 113.384 119.365 112.583 119.365 111.659C119.365 110.742 119.522 109.947 119.837 109.273C120.151 108.598 120.589 108.078 121.149 107.71C121.71 107.343 122.357 107.159 123.092 107.159C123.661 107.159 124.109 107.254 124.439 107.443C124.772 107.629 125.026 107.841 125.2 108.08C125.378 108.314 125.517 108.508 125.615 108.659H125.729V104.364H127.07V116H125.774V114.659H125.615C125.517 114.818 125.376 115.019 125.195 115.261C125.013 115.5 124.753 115.714 124.416 115.903C124.079 116.089 123.63 116.182 123.07 116.182ZM123.251 114.977C123.789 114.977 124.244 114.837 124.615 114.557C124.986 114.273 125.268 113.881 125.462 113.381C125.655 112.877 125.751 112.295 125.751 111.636C125.751 110.985 125.657 110.415 125.467 109.926C125.278 109.434 124.998 109.051 124.626 108.778C124.255 108.502 123.797 108.364 123.251 108.364C122.683 108.364 122.21 108.509 121.831 108.801C121.456 109.089 121.174 109.481 120.984 109.977C120.799 110.47 120.706 111.023 120.706 111.636C120.706 112.258 120.801 112.822 120.99 113.33C121.183 113.833 121.467 114.235 121.842 114.534C122.221 114.83 122.691 114.977 123.251 114.977ZM133.371 116.182C132.53 116.182 131.804 115.996 131.195 115.625C130.589 115.25 130.121 114.727 129.791 114.057C129.465 113.383 129.303 112.598 129.303 111.705C129.303 110.811 129.465 110.023 129.791 109.341C130.121 108.655 130.579 108.121 131.166 107.739C131.757 107.352 132.446 107.159 133.234 107.159C133.689 107.159 134.138 107.235 134.581 107.386C135.024 107.538 135.428 107.784 135.791 108.125C136.155 108.462 136.445 108.909 136.661 109.466C136.876 110.023 136.984 110.708 136.984 111.523V112.091H130.257V110.932H135.621C135.621 110.439 135.522 110 135.325 109.614C135.132 109.227 134.856 108.922 134.496 108.699C134.14 108.475 133.719 108.364 133.234 108.364C132.7 108.364 132.238 108.496 131.848 108.761C131.462 109.023 131.164 109.364 130.956 109.784C130.748 110.205 130.643 110.655 130.643 111.136V111.909C130.643 112.568 130.757 113.127 130.984 113.585C131.215 114.04 131.536 114.386 131.945 114.625C132.354 114.86 132.829 114.977 133.371 114.977C133.723 114.977 134.041 114.928 134.325 114.83C134.613 114.727 134.861 114.576 135.07 114.375C135.278 114.17 135.439 113.917 135.553 113.614L136.848 113.977C136.712 114.417 136.482 114.803 136.161 115.136C135.839 115.466 135.441 115.723 134.967 115.909C134.494 116.091 133.962 116.182 133.371 116.182ZM145.206 109.227L144.001 109.568C143.926 109.367 143.814 109.172 143.666 108.983C143.522 108.79 143.325 108.631 143.075 108.506C142.825 108.381 142.505 108.318 142.115 108.318C141.581 108.318 141.136 108.441 140.78 108.688C140.428 108.93 140.251 109.239 140.251 109.614C140.251 109.947 140.373 110.21 140.615 110.403C140.857 110.597 141.236 110.758 141.751 110.886L143.047 111.205C143.827 111.394 144.409 111.684 144.791 112.074C145.174 112.46 145.365 112.958 145.365 113.568C145.365 114.068 145.221 114.515 144.933 114.909C144.649 115.303 144.251 115.614 143.74 115.841C143.229 116.068 142.634 116.182 141.956 116.182C141.066 116.182 140.329 115.989 139.746 115.602C139.162 115.216 138.793 114.652 138.638 113.909L139.911 113.591C140.032 114.061 140.261 114.413 140.598 114.648C140.939 114.883 141.384 115 141.933 115C142.558 115 143.054 114.867 143.422 114.602C143.793 114.333 143.979 114.011 143.979 113.636C143.979 113.333 143.873 113.08 143.661 112.875C143.448 112.667 143.123 112.511 142.683 112.409L141.229 112.068C140.429 111.879 139.842 111.585 139.467 111.188C139.096 110.786 138.911 110.284 138.911 109.682C138.911 109.189 139.049 108.754 139.325 108.375C139.606 107.996 139.986 107.699 140.467 107.483C140.952 107.267 141.501 107.159 142.115 107.159C142.979 107.159 143.657 107.348 144.149 107.727C144.645 108.106 144.998 108.606 145.206 109.227ZM151.043 116.182C150.202 116.182 149.476 115.996 148.866 115.625C148.26 115.25 147.793 114.727 147.463 114.057C147.137 113.383 146.974 112.598 146.974 111.705C146.974 110.811 147.137 110.023 147.463 109.341C147.793 108.655 148.251 108.121 148.838 107.739C149.429 107.352 150.118 107.159 150.906 107.159C151.361 107.159 151.81 107.235 152.253 107.386C152.696 107.538 153.099 107.784 153.463 108.125C153.827 108.462 154.116 108.909 154.332 109.466C154.548 110.023 154.656 110.708 154.656 111.523V112.091H147.929V110.932H153.293C153.293 110.439 153.194 110 152.997 109.614C152.804 109.227 152.527 108.922 152.168 108.699C151.812 108.475 151.391 108.364 150.906 108.364C150.372 108.364 149.91 108.496 149.52 108.761C149.134 109.023 148.836 109.364 148.628 109.784C148.42 110.205 148.315 110.655 148.315 111.136V111.909C148.315 112.568 148.429 113.127 148.656 113.585C148.887 114.04 149.207 114.386 149.616 114.625C150.026 114.86 150.501 114.977 151.043 114.977C151.395 114.977 151.713 114.928 151.997 114.83C152.285 114.727 152.533 114.576 152.741 114.375C152.95 114.17 153.111 113.917 153.224 113.614L154.52 113.977C154.384 114.417 154.154 114.803 153.832 115.136C153.51 115.466 153.113 115.723 152.639 115.909C152.166 116.091 151.634 116.182 151.043 116.182ZM158.037 110.75V116H156.696V107.273H157.991V108.636H158.105C158.31 108.193 158.62 107.837 159.037 107.568C159.454 107.295 159.991 107.159 160.651 107.159C161.241 107.159 161.759 107.28 162.202 107.523C162.645 107.761 162.99 108.125 163.236 108.614C163.482 109.098 163.605 109.712 163.605 110.455V116H162.264V110.545C162.264 109.86 162.086 109.326 161.73 108.943C161.374 108.557 160.885 108.364 160.264 108.364C159.836 108.364 159.454 108.456 159.116 108.642C158.783 108.828 158.52 109.098 158.327 109.455C158.134 109.811 158.037 110.242 158.037 110.75ZM169.601 116.182C168.783 116.182 168.078 115.989 167.487 115.602C166.896 115.216 166.442 114.684 166.124 114.006C165.805 113.328 165.646 112.553 165.646 111.682C165.646 110.795 165.809 110.013 166.135 109.335C166.464 108.653 166.923 108.121 167.51 107.739C168.101 107.352 168.79 107.159 169.578 107.159C170.192 107.159 170.745 107.273 171.237 107.5C171.73 107.727 172.133 108.045 172.447 108.455C172.762 108.864 172.957 109.341 173.033 109.886H171.692C171.589 109.489 171.362 109.136 171.01 108.83C170.661 108.519 170.192 108.364 169.601 108.364C169.078 108.364 168.62 108.5 168.226 108.773C167.836 109.042 167.531 109.422 167.311 109.915C167.095 110.403 166.987 110.977 166.987 111.636C166.987 112.311 167.093 112.898 167.305 113.398C167.521 113.898 167.824 114.286 168.214 114.562C168.608 114.839 169.071 114.977 169.601 114.977C169.949 114.977 170.266 114.917 170.55 114.795C170.834 114.674 171.074 114.5 171.271 114.273C171.468 114.045 171.608 113.773 171.692 113.455H173.033C172.957 113.97 172.769 114.434 172.47 114.847C172.175 115.256 171.783 115.581 171.294 115.824C170.809 116.062 170.245 116.182 169.601 116.182ZM174.993 116V107.273H176.288V108.591H176.379C176.538 108.159 176.826 107.809 177.243 107.54C177.66 107.271 178.129 107.136 178.652 107.136C178.75 107.136 178.874 107.138 179.021 107.142C179.169 107.146 179.281 107.152 179.357 107.159V108.523C179.311 108.511 179.207 108.494 179.044 108.472C178.885 108.445 178.716 108.432 178.538 108.432C178.114 108.432 177.735 108.521 177.402 108.699C177.072 108.873 176.811 109.116 176.618 109.426C176.429 109.733 176.334 110.083 176.334 110.477V116H174.993ZM180.946 116V107.273H182.287V116H180.946ZM181.628 105.818C181.366 105.818 181.141 105.729 180.952 105.551C180.766 105.373 180.673 105.159 180.673 104.909C180.673 104.659 180.766 104.445 180.952 104.267C181.141 104.089 181.366 104 181.628 104C181.889 104 182.113 104.089 182.298 104.267C182.488 104.445 182.582 104.659 182.582 104.909C182.582 105.159 182.488 105.373 182.298 105.551C182.113 105.729 181.889 105.818 181.628 105.818ZM184.743 119.273V107.273H186.038V108.659H186.197C186.296 108.508 186.432 108.314 186.607 108.08C186.785 107.841 187.038 107.629 187.368 107.443C187.701 107.254 188.152 107.159 188.72 107.159C189.455 107.159 190.103 107.343 190.663 107.71C191.224 108.078 191.661 108.598 191.976 109.273C192.29 109.947 192.447 110.742 192.447 111.659C192.447 112.583 192.29 113.384 191.976 114.062C191.661 114.737 191.226 115.259 190.669 115.631C190.112 115.998 189.47 116.182 188.743 116.182C188.182 116.182 187.733 116.089 187.396 115.903C187.059 115.714 186.8 115.5 186.618 115.261C186.436 115.019 186.296 114.818 186.197 114.659H186.084V119.273H184.743ZM186.061 111.636C186.061 112.295 186.158 112.877 186.351 113.381C186.544 113.881 186.826 114.273 187.197 114.557C187.569 114.837 188.023 114.977 188.561 114.977C189.122 114.977 189.589 114.83 189.964 114.534C190.343 114.235 190.627 113.833 190.817 113.33C191.01 112.822 191.107 112.258 191.107 111.636C191.107 111.023 191.012 110.47 190.822 109.977C190.637 109.481 190.355 109.089 189.976 108.801C189.601 108.509 189.129 108.364 188.561 108.364C188.016 108.364 187.557 108.502 187.186 108.778C186.815 109.051 186.535 109.434 186.345 109.926C186.156 110.415 186.061 110.985 186.061 111.636ZM198.288 107.273V108.409H193.766V107.273H198.288ZM195.084 105.182H196.425V113.5C196.425 113.879 196.48 114.163 196.589 114.352C196.703 114.538 196.847 114.663 197.021 114.727C197.199 114.788 197.387 114.818 197.584 114.818C197.732 114.818 197.853 114.811 197.947 114.795C198.042 114.777 198.118 114.761 198.175 114.75L198.447 115.955C198.357 115.989 198.23 116.023 198.067 116.057C197.904 116.095 197.697 116.114 197.447 116.114C197.069 116.114 196.697 116.032 196.334 115.869C195.974 115.706 195.675 115.458 195.436 115.125C195.201 114.792 195.084 114.371 195.084 113.864V105.182ZM202.874 116.205C202.321 116.205 201.819 116.1 201.368 115.892C200.917 115.68 200.559 115.375 200.294 114.977C200.029 114.576 199.896 114.091 199.896 113.523C199.896 113.023 199.995 112.617 200.192 112.307C200.389 111.992 200.652 111.746 200.982 111.568C201.311 111.39 201.675 111.258 202.072 111.17C202.474 111.08 202.877 111.008 203.283 110.955C203.813 110.886 204.243 110.835 204.572 110.801C204.906 110.763 205.148 110.701 205.3 110.614C205.455 110.527 205.533 110.375 205.533 110.159V110.114C205.533 109.553 205.379 109.117 205.072 108.807C204.769 108.496 204.309 108.341 203.692 108.341C203.052 108.341 202.55 108.481 202.186 108.761C201.822 109.042 201.567 109.341 201.419 109.659L200.146 109.205C200.374 108.674 200.677 108.261 201.055 107.966C201.438 107.667 201.855 107.458 202.305 107.341C202.76 107.22 203.207 107.159 203.646 107.159C203.927 107.159 204.249 107.193 204.612 107.261C204.98 107.326 205.334 107.46 205.675 107.665C206.019 107.869 206.305 108.178 206.533 108.591C206.76 109.004 206.874 109.557 206.874 110.25V116H205.533V114.818H205.464C205.374 115.008 205.222 115.21 205.01 115.426C204.798 115.642 204.516 115.826 204.163 115.977C203.811 116.129 203.381 116.205 202.874 116.205ZM203.078 115C203.608 115 204.055 114.896 204.419 114.688C204.786 114.479 205.063 114.21 205.249 113.881C205.438 113.551 205.533 113.205 205.533 112.841V111.614C205.476 111.682 205.351 111.744 205.158 111.801C204.968 111.854 204.749 111.902 204.499 111.943C204.252 111.981 204.012 112.015 203.777 112.045C203.546 112.072 203.358 112.095 203.214 112.114C202.866 112.159 202.54 112.233 202.237 112.335C201.938 112.434 201.696 112.583 201.51 112.784C201.328 112.981 201.237 113.25 201.237 113.591C201.237 114.057 201.41 114.409 201.754 114.648C202.103 114.883 202.544 115 203.078 115ZM209.321 116V107.273H210.616V108.591H210.707C210.866 108.159 211.154 107.809 211.571 107.54C211.988 107.271 212.457 107.136 212.98 107.136C213.079 107.136 213.202 107.138 213.349 107.142C213.497 107.146 213.609 107.152 213.685 107.159V108.523C213.639 108.511 213.535 108.494 213.372 108.472C213.213 108.445 213.045 108.432 212.866 108.432C212.442 108.432 212.063 108.521 211.73 108.699C211.401 108.873 211.139 109.116 210.946 109.426C210.757 109.733 210.662 110.083 210.662 110.477V116H209.321ZM215.251 116.091C214.971 116.091 214.731 115.991 214.53 115.79C214.329 115.589 214.229 115.348 214.229 115.068C214.229 114.788 214.329 114.547 214.53 114.347C214.731 114.146 214.971 114.045 215.251 114.045C215.532 114.045 215.772 114.146 215.973 114.347C216.174 114.547 216.274 114.788 216.274 115.068C216.274 115.254 216.227 115.424 216.132 115.58C216.041 115.735 215.918 115.86 215.763 115.955C215.611 116.045 215.441 116.091 215.251 116.091Z" fill="#495057"/>
</svg>
